<?xml version="1.0" standalone="no"?>
<!DOCTYPE svg PUBLIC "-//W3C//DTD SVG 20010904//EN"
 "http://www.w3.org/TR/2001/REC-SVG-20010904/DTD/svg10.dtd">
<svg version="1.0" xmlns="http://www.w3.org/2000/svg"
 width="700.000000pt" height="700.000000pt" viewBox="0 0 700.000000 700.000000"
 preserveAspectRatio="xMidYMid meet">
<metadata>
Created by potrace 1.11, written by Peter Selinger 2001-2013
</metadata>
<g transform="translate(0.000000,700.000000) scale(0.100000,-0.100000)"
fill="#000000" stroke="none">
<path d="M4360 6905 c-36 -7 -78 -16 -95 -18 -94 -17 -151 -29 -157 -35 -3 -4
2 -50 12 -102 10 -52 21 -111 24 -130 3 -19 8 -46 10 -59 6 -29 73 -402 81
-451 3 -19 8 -42 10 -50 3 -8 7 -31 9 -50 3 -19 9 -57 15 -85 5 -27 7 -53 5
-56 -2 -4 -27 -10 -56 -14 -29 -4 -60 -8 -68 -10 -19 -4 -223 -42 -270 -50
-52 -9 -361 -64 -390 -70 -14 -3 -50 -9 -80 -15 -30 -6 -64 -12 -75 -14 -11
-2 -40 -7 -65 -11 -25 -4 -52 -9 -60 -10 -42 -7 -106 -19 -110 -20 -6 -1 -87
-16 -115 -21 -19 -3 -174 -31 -325 -59 -41 -7 -91 -16 -110 -20 -29 -5 -200
-34 -289 -50 -14 -2 -47 -9 -75 -14 -28 -6 -64 -12 -81 -15 -16 -3 -55 -9 -85
-15 -30 -6 -128 -23 -218 -39 -89 -16 -165 -32 -168 -35 -3 -2 4 -54 16 -113
11 -60 23 -123 26 -139 11 -68 21 -90 40 -88 41 4 104 14 116 18 7 2 29 6 48
9 30 5 178 31 505 91 44 8 94 17 110 20 17 3 57 11 90 17 33 6 69 12 80 14 11
2 31 5 45 8 24 5 103 18 180 31 19 3 53 10 75 15 22 5 60 11 85 15 25 3 61 10
80 15 19 5 51 11 70 13 35 5 192 32 240 42 14 3 39 7 55 10 17 3 53 10 80 15
28 5 64 12 80 15 17 3 41 7 55 10 14 2 77 13 140 25 63 11 124 22 135 24 65
12 93 17 115 21 14 3 39 8 55 10 17 3 68 13 115 21 47 9 96 18 110 20 14 3 86
16 161 29 75 14 140 25 143 25 3 0 4 14 1 30 -3 17 -7 45 -10 63 -3 17 -8 43
-10 57 -12 59 -16 81 -35 190 -11 63 -22 126 -25 140 -3 14 -8 39 -10 55 -3
17 -10 57 -16 90 -6 33 -12 69 -14 80 -1 11 -5 31 -9 45 -3 14 -8 39 -10 55
-3 27 -29 173 -41 233 -2 13 -14 78 -25 145 -11 67 -23 130 -26 140 -6 19 -6
19 -94 2z"/>
<path d="M385 6200 c-48 -10 -85 -17 -188 -35 -43 -8 -81 -17 -86 -19 -5 -3
-4 -27 0 -53 23 -118 61 -329 85 -468 5 -28 14 -79 48 -270 8 -44 17 -96 21
-115 3 -19 10 -57 15 -85 17 -87 39 -209 45 -245 7 -43 23 -136 30 -170 3 -14
10 -51 15 -82 6 -32 14 -84 20 -115 5 -32 12 -69 15 -83 3 -14 14 -74 25 -135
11 -60 22 -119 24 -130 6 -31 19 -109 21 -120 4 -33 18 -115 25 -145 5 -19 11
-53 15 -75 3 -22 15 -92 26 -155 12 -63 23 -124 24 -136 2 -11 8 -45 14 -75 6
-30 13 -67 16 -84 3 -16 7 -43 10 -60 16 -86 66 -364 70 -390 3 -16 7 -41 10
-55 7 -33 75 -416 81 -455 3 -16 13 -75 24 -130 10 -55 21 -116 24 -135 9 -53
16 -93 21 -116 3 -12 7 -39 10 -60 4 -21 8 -46 10 -54 3 -8 7 -32 11 -54 3
-21 8 -48 10 -60 2 -11 13 -73 24 -136 11 -63 22 -126 25 -140 3 -14 12 -63
20 -110 8 -47 18 -98 20 -115 3 -16 8 -40 10 -53 2 -12 9 -48 14 -80 6 -31 13
-70 16 -87 2 -16 7 -41 10 -55 3 -14 8 -40 11 -59 3 -18 8 -43 10 -55 2 -11
18 -97 34 -191 16 -93 39 -219 50 -279 11 -60 23 -130 26 -155 3 -25 8 -49 10
-52 2 -4 6 -24 10 -45 13 -85 21 -109 35 -108 13 2 371 65 644 115 61 11 135
24 165 29 30 6 66 12 80 15 36 7 312 57 330 60 126 18 118 8 96 125 -16 83
-25 138 -32 189 -2 19 -7 38 -10 43 -5 8 -43 6 -114 -7 -70 -13 -511 -91 -620
-110 -19 -3 -86 -15 -149 -26 -62 -11 -114 -19 -116 -17 -2 2 -5 17 -8 33 -18
104 -28 164 -33 190 -12 67 -64 352 -68 375 -2 14 -11 63 -20 110 -8 47 -18
101 -21 120 -9 55 -45 252 -50 280 -5 24 -28 149 -40 220 -16 95 -66 371 -75
415 -5 28 -12 66 -15 85 -3 19 -12 71 -20 115 -8 44 -17 94 -20 110 -8 48 -15
83 -35 195 -11 58 -22 119 -25 135 -3 17 -8 46 -11 65 -3 19 -7 42 -9 50 -2 8
-7 38 -11 65 -3 28 -8 53 -10 56 -2 4 -6 24 -9 45 -4 22 -8 46 -10 54 -2 8 -7
35 -10 60 -3 25 -10 61 -15 80 -4 19 -14 67 -20 107 -6 39 -13 77 -14 85 -10
52 -52 285 -61 338 -3 19 -8 42 -10 50 -2 8 -6 33 -10 55 -3 22 -16 99 -30
170 -21 117 -104 575 -126 700 -4 28 -11 64 -14 80 -24 129 -38 204 -42 230
-2 17 -18 102 -34 190 -16 88 -32 176 -34 195 -3 19 -7 46 -10 60 -8 35 -21
104 -50 265 -3 17 -7 41 -9 55 -3 14 -12 66 -21 115 -9 50 -17 97 -19 105 -4
18 -19 20 -71 10z"/>
<path d="M3435 3954 c-33 -7 -76 -16 -95 -19 -85 -13 -150 -28 -150 -34 0 -5
43 -251 54 -311 3 -14 12 -65 21 -115 19 -110 46 -259 75 -423 13 -70 19 -127
14 -131 -5 -4 -52 -15 -104 -24 -52 -10 -196 -35 -320 -58 -124 -22 -286 -51
-360 -64 -74 -13 -189 -33 -255 -45 -66 -12 -133 -24 -150 -27 -16 -2 -34 -8
-39 -13 -5 -5 1 -61 14 -132 12 -68 24 -136 27 -153 9 -56 18 -64 60 -55 21 5
54 12 73 15 19 3 60 10 90 15 30 6 69 13 85 15 17 3 66 12 110 20 44 8 96 17
115 20 19 3 42 8 50 10 8 2 33 6 55 10 22 3 78 13 125 21 47 9 96 18 110 20
76 13 372 66 410 75 25 5 63 12 85 15 60 9 238 43 240 46 1 2 -4 31 -11 66 -7
34 -15 77 -18 95 -8 48 -15 87 -26 142 -12 65 -19 102 -26 145 -3 19 -14 80
-24 135 -11 55 -22 116 -25 135 -3 19 -12 69 -20 110 -8 41 -16 89 -19 105 -2
17 -12 71 -21 120 -8 50 -18 101 -20 114 -9 49 -27 136 -31 154 -6 19 -16 20
-99 1z"/>
<path d="M5550 3593 c-119 -20 -265 -83 -350 -151 -188 -149 -293 -374 -285
-610 11 -345 250 -629 593 -706 64 -14 247 -16 268 -3 9 5 9 19 3 48 -6 23
-11 53 -13 68 -13 90 -29 178 -36 190 -6 11 -24 14 -66 12 -217 -8 -406 166
-421 387 -12 173 76 325 233 401 236 115 517 -17 583 -274 6 -22 15 -58 21
-81 l10 -41 137 24 c193 33 183 26 166 110 -17 85 -29 124 -60 191 -92 207
-273 359 -495 418 -59 16 -233 26 -288 17z"/>
<path d="M6037 2504 c-14 -4 -17 -12 -13 -32 3 -15 8 -40 11 -57 3 -16 7 -41
10 -55 3 -14 8 -43 11 -65 3 -22 9 -56 13 -75 l7 -35 75 -1 c116 -2 198 -34
281 -112 173 -161 180 -426 17 -591 -191 -194 -504 -161 -651 69 -32 50 -68
157 -68 200 0 16 -4 31 -8 34 -9 5 -60 -2 -220 -29 -102 -18 -103 -18 -98 -44
3 -14 8 -42 11 -61 12 -74 67 -215 109 -279 251 -389 787 -461 1128 -152 181
165 267 401 235 646 -10 82 -17 106 -48 182 -86 205 -242 351 -457 426 -75 26
-103 31 -207 33 -66 2 -128 0 -138 -2z"/>
</g>
</svg>
