<svg version="1.1" id="Camada_1" xmlns="http://www.w3.org/2000/svg" x="0" y="0" viewBox="0 0 150 64.1" xml:space="preserve"><style>.st0{fill:#fff}.st1{fill:#ff9827}</style><path transform="rotate(-45.001 46.044 5.677)" class="st0" d="M42 3h8.1v5.4H42z"/><path class="st0" d="M32.3 10.5V.9H1.4v42.9H11V29.6h11.4v-9.5H11v-9.6zM103.7 12.9h9.6v30.9h-9.6z"/><circle class="st0" cx="108.5" cy="5.7" r="4.8"/><path class="st0" d="M85.1 12.9c-2.8 0-5.4 1-7.6 2.6V.9h-9.6v42.9h9.6v-2.6c2.2 1.6 4.8 2.6 7.6 2.6 7.6 0 13.7-6.9 13.7-15.5s-6.1-15.4-13.7-15.4zm-1.6 21.5c-3.3 0-6-2.7-6-6s2.7-6 6-6 6 2.7 6 6-2.7 6-6 6zM133.5 12.9c-8.5 0-15.5 6.9-15.5 15.5s6.9 15.5 15.5 15.5 15.5-7 15.5-15.5-6.9-15.5-15.5-15.5zm0 21.5c-3.3 0-6-2.7-6-6s2.7-6 6-6 6 2.7 6 6-2.6 6-6 6zM51.8 12.9v2.6c-2.2-1.6-4.8-2.6-7.6-2.6-7.6 0-13.7 6.9-13.7 15.5s6.1 15.5 13.7 15.5c2.8 0 5.4-1 7.6-2.6v2.6h9.6v-31h-9.6zm-6.1 21.5c-3.3 0-6-2.7-6-6s2.7-6 6-6 6 2.7 6 6-2.6 6-6 6z"/><g><path class="st1" d="M22.3 62.6c-.4-.2-.7-.4-.9-.7-.2-.3-.3-.7-.3-1.1h1c0 .3.2.6.4.9.3.2.6.4 1.1.4.5 0 .8-.1 1.1-.3.3-.2.4-.5.4-.9 0-.3-.1-.5-.2-.7-.2-.2-.4-.3-.6-.4-.2-.1-.6-.2-1-.3-.5-.1-.9-.3-1.2-.4-.3-.1-.6-.3-.8-.6-.2-.3-.3-.6-.3-1.1 0-.4.1-.8.3-1.1.2-.3.5-.6.9-.7.4-.2.8-.3 1.3-.3.7 0 1.3.2 1.7.5.4.3.7.8.8 1.4h-1c0-.3-.2-.5-.4-.8-.3-.2-.6-.3-1-.3s-.7.1-1 .3c-.3.2-.4.5-.4.9 0 .3.1.5.2.7.2.2.3.3.6.4.2.1.5.2.9.3.5.1.9.3 1.2.4.3.1.6.3.8.6.2.3.3.6.3 1.1 0 .4-.1.7-.3 1-.2.3-.5.6-.9.8-.4.2-.8.3-1.3.3-.6 0-1-.1-1.4-.3zM42.7 61.1h-3.3l-.6 1.7h-1l2.7-7.4h1.1l2.7 7.4h-1l-.6-1.7zm-.3-.7l-1.3-3.8-1.3 3.8h2.6zM57.2 62h2.6v.8h-3.6v-7.5h1V62zM77.2 57.5c-.2-.4-.5-.8-.9-1-.4-.2-.9-.4-1.4-.4-.5 0-1 .1-1.4.4-.4.2-.7.6-1 1-.2.4-.4 1-.4 1.5 0 .6.1 1.1.4 1.5.2.4.6.8 1 1 .4.2.9.4 1.4.4.7 0 1.3-.2 1.8-.7.5-.4.7-1 .8-1.8h-3v-.8h4v.7c-.1.6-.2 1.2-.6 1.7-.3.5-.8.9-1.3 1.2-.5.3-1.1.4-1.8.4s-1.3-.2-1.9-.5c-.6-.3-1-.8-1.4-1.4-.3-.6-.5-1.2-.5-2 0-.7.2-1.4.5-2 .3-.6.8-1 1.4-1.4.6-.3 1.2-.5 1.9-.5.8 0 1.5.2 2.1.6.6.4 1.1.9 1.3 1.7h-1zM95 61.1h-3.3l-.6 1.7h-1l2.7-7.4h1.1l2.7 7.4h-1l-.6-1.7zm-.3-.7l-1.3-3.8-1.4 3.8h2.7zM113 55.8c.6.3 1.1.7 1.4 1.3.3.6.5 1.2.5 2s-.2 1.4-.5 2c-.3.6-.8 1-1.4 1.3-.6.3-1.3.4-2.1.4h-2.3v-7.5h2.3c.8 0 1.5.2 2.1.5zm0 5.4c.5-.5.8-1.2.8-2.1 0-.9-.3-1.7-.8-2.2-.5-.5-1.2-.8-2.2-.8h-1.3V62h1.3c1 0 1.7-.3 2.2-.8zM128.3 62.4c-.6-.3-1-.8-1.4-1.4-.3-.6-.5-1.2-.5-2 0-.7.2-1.4.5-2 .3-.6.8-1 1.4-1.4.6-.3 1.2-.5 1.9-.5s1.3.2 1.9.5c.6.3 1 .8 1.3 1.4.3.6.5 1.2.5 2 0 .7-.2 1.4-.5 2-.3.6-.8 1-1.3 1.4-.6.3-1.2.5-1.9.5s-1.3-.2-1.9-.5zm3.3-.7c.4-.2.7-.6 1-1 .2-.4.4-1 .4-1.6 0-.6-.1-1.1-.4-1.6-.2-.4-.6-.8-1-1-.4-.2-.9-.4-1.4-.4-.5 0-1 .1-1.4.4-.4.2-.7.6-1 1-.2.4-.4 1-.4 1.6 0 .6.1 1.1.4 1.6.2.4.6.8 1 1 .4.2.9.4 1.4.4.5-.1 1-.2 1.4-.4z"/><circle class="st1" cx="32.2" cy="59.1" r="1.1"/><circle class="st1" cx="50.3" cy="59.1" r="1.1"/><circle class="st1" cx="65.8" cy="59.1" r="1.1"/><circle class="st1" cx="84.7" cy="59.1" r="1.1"/><circle class="st1" cx="102.2" cy="59.1" r="1.1"/><circle class="st1" cx="121" cy="59.1" r="1.1"/></g></svg>