<?xml version="1.0" encoding="utf-8"?>
<!-- Generator: Adobe Illustrator 25.0.1, SVG Export Plug-In . SVG Version: 6.00 Build 0)  -->
<svg version="1.1" id="Camada_1" xmlns="http://www.w3.org/2000/svg" xmlns:xlink="http://www.w3.org/1999/xlink" x="0px" y="0px"
	 viewBox="0 0 150 150" style="enable-background:new 0 0 150 150;" xml:space="preserve">
<style type="text/css">
	.st0{fill-rule:evenodd;clip-rule:evenodd;fill:#FF9827;}
</style>
<g>
	<path class="st0" d="M121.4,0H28.7C12.8,0,0,12.8,0,28.7v92.7c0,15.8,12.8,28.7,28.7,28.7h92.7c15.8,0,28.7-12.8,28.7-28.7V28.7
		C150.1,12.8,137.2,0,121.4,0z M75.2,123.5c-8.2,0-16.2-2-23.4-5.9l-25.9,6.8l7-25.4c-4.3-7.4-6.5-15.8-6.5-24.4
		c0.1-26.9,22-48.9,48.9-48.9c13.1,0,25.4,5.1,34.6,14.3c9.2,9.2,14.3,21.5,14.2,34.6C124,101.5,102.1,123.5,75.2,123.5z"/>
	<path class="st0" d="M75.3,33.9c-22.5,0-40.7,18.2-40.7,40.6c0,7.7,2.2,15.2,6.2,21.7l0.9,1.6l-4.1,15l15.4-4.1l1.5,0.9
		c6.3,3.7,13.4,5.7,20.7,5.7c22.4,0,40.6-18.2,40.7-40.6c0-10.9-4.2-21.1-11.9-28.8C96.4,38.1,86.2,33.9,75.3,33.9z M99.1,92
		c-1,2.8-5.9,5.5-8.2,5.8c-2.1,0.3-4.8,0.5-7.7-0.5c-1.8-0.5-4.1-1.3-7-2.6C64,89.5,56,77.2,55.4,76.4c-0.6-0.8-5.1-6.6-5.1-12.6
		c0-6,3.1-9,4.3-10.2c1.1-1.2,2.4-1.6,3.2-1.6c0.8,0,1.6,0,2.4,0.1c0.7,0,1.8-0.3,2.8,2.1c1,2.4,3.4,8.4,3.8,9
		c0.3,0.6,0.5,1.4,0.1,2.2c-0.4,0.8-1.7,2.6-3,4.2c-0.5,0.7-1.3,1.3-0.5,2.5s3.2,5.2,6.8,8.4c4.7,4.2,8.6,5.5,9.9,6.1
		c1.2,0.6,1.9,0.5,2.6-0.3c0.7-0.8,3-3.6,3.8-4.8s1.6-1,2.8-0.6s7.2,3.4,8.4,4c1.3,0.6,2.1,0.9,2.4,1.4S100.1,89.2,99.1,92z"/>
</g>
</svg>
